<?xml version="1.0" encoding="utf-8"?>
<!-- Svg Vector Icons : http://www.onlinewebfonts.com/icon -->
<!DOCTYPE svg PUBLIC "-//W3C//DTD SVG 1.1//EN" "http://www.w3.org/Graphics/SVG/1.1/DTD/svg11.dtd">
<svg version="1.1" xmlns="http://www.w3.org/2000/svg" xmlns:xlink="http://www.w3.org/1999/xlink" x="0px" y="0px" viewBox="0 0 1000 1000" enable-background="new 0 0 1000 1000" xml:space="preserve">
<metadata> Svg Vector Icons : http://www.onlinewebfonts.com/icon </metadata>
<g><g transform="translate(0.000000,249.000000) scale(0.100000,-0.100000)"><path d="M1285.5,1494.6C253.5,466.6,273.3,494.2,558,189.8L732,3.9l-55.4-217.5c-201.7-755.2-47.4-1720,391.4-2419.9c225.4-359.8,711.7-838.2,1075.5-1051.8c549.6-320.3,1304.8-490.3,1886.1-419.1l304.5,39.5l11.9-541.8c11.9-541.7,11.9-545.6,130.5-672.2c138.4-146.3,344-241.2,442.9-209.5c102.8,35.6,3293.7,3218.6,3337.3,3329.3c47.4,118.6-35.6,308.4-197.7,462.6c-126.6,118.6-130.5,118.6-672.2,130.5L6845-1554l31.7,245.1c94.9,648.5-106.8,1486.7-506.2,2087.8c-209.5,316.3-707.8,798.7-1020.1,980.6c-672.2,399.4-1625.2,537.8-2356.7,344l-217.5-55.4l-185.8,174C2285.9,2506.9,2313.6,2526.6,1285.5,1494.6z M4144.4,1012.2c383.5-130.5,786.9-415.2,786.9-553.6c0-75.1-75.1-158.2-142.4-158.2c-23.7,0-130.5,71.2-233.3,154.2C4270.9,688,3958.5,794.7,3535.4,794.7c-332.2,0-419.1,31.6-423.1,146.3C3108.4,1111.1,3725.2,1150.6,4144.4,1012.2z"/><path d="M7881-3183.1c-55.4-43.5-102.8-118.6-102.8-162.1c0-43.5,87-197.7,193.7-344c699.9-949,1150.7-2238,1150.7-3285.9c0-304.5,67.2-435,233.3-435c221.5,0,261,75.1,253.1,462.6c-27.6,1119-411.2,2301.2-1055.7,3274c-284.7,427-419.2,573.3-522,573.3C8007.5-3100,7940.3-3135.6,7881-3183.1z"/><path d="M7011.1-4072.8c-102.8-102.8-71.2-257,98.8-498.2c241.2-347.9,541.7-1008.3,652.4-1443.2c55.3-213.5,114.6-589.2,130.4-838.2c31.7-490.3,67.3-557.6,288.7-557.6c193.8,0,245.1,138.4,213.5,565.4c-71.2,937.1-419.2,1921.7-917.4,2601.8c-142.3,193.7-193.7,233.3-288.6,233.3C7125.7-4009.5,7042.7-4037.2,7011.1-4072.8z"/><path d="M6105.6-4950.5c-98.9-110.7-83-225.4,71.2-490.3c292.6-494.3,427-921.3,474.5-1514.4c31.6-351.9,90.9-454.7,257-454.7c205.6,0,253,110.7,225.4,522c-11.9,201.6-59.3,510.1-106.8,684.1c-94.9,363.8-435,1091.4-573.3,1229.7C6338.9-4859.6,6192.6-4851.7,6105.6-4950.5z"/></g></g>
</svg>