<?xml version="1.0" encoding="utf-8"?>
<!-- Svg Vector Icons : http://www.onlinewebfonts.com/icon -->
<!DOCTYPE svg PUBLIC "-//W3C//DTD SVG 1.1//EN" "http://www.w3.org/Graphics/SVG/1.1/DTD/svg11.dtd">
<svg version="1.1" xmlns="http://www.w3.org/2000/svg" xmlns:xlink="http://www.w3.org/1999/xlink" x="0px" y="0px" viewBox="0 0 1000 1000" enable-background="new 0 0 1000 1000" xml:space="preserve">
<metadata> Svg Vector Icons : http://www.onlinewebfonts.com/icon </metadata>
<g><g transform="translate(0.000000,250.000000) scale(0.100000,-0.100000)"><path d="M3166.4,2443c-372.3-52-984.8-264.2-1321-460.4C1232.9,1622.3,676.4,973.8,428.3,329.3c-648.5-1685.3,92.1-3410.7,1641.3-3831c320.3-88.1,980.8-96.1,1257-20c1092.9,304.2,1797.4,1405.1,1577.2,2453.9c-140.1,652.5-656.5,1168.9-1309,1309c-288.2,60-476.4,56-728.6-20c-896.7-268.2-1265-1393.1-652.5-2001.6c184.1-188.1,348.3-260.2,620.5-284.2c508.4-48,912.7,296.2,912.7,780.6c0,280.2-232.2,528.4-500.4,528.4c-236.2,0-360.3-132.1-324.3-348.3c56-336.3,56-352.3-76.1-352.3c-264.2,0-336.3,480.4-116.1,772.6c308.2,400.3,968.7,296.2,1216.9-196.1c56-108.1,80.1-232.2,80.1-428.3c0-448.4-196.1-760.6-616.5-980.8c-232.2-120.1-724.6-120.1-992.8,0c-280.2,128.1-564.4,412.3-692.5,696.5c-100.1,224.2-108.1,276.2-92.1,632.5c12,324.3,36,420.3,136.1,620.5c152.1,312.3,420.3,584.5,740.6,752.6c252.2,128.1,268.2,132.1,756.6,132.1c496.4,0,504.4,0,812.6-148.1c440.3-212.2,744.6-512.4,960.7-948.7L5208-887.6v-564.4c-4-516.4-12-588.5-108.1-832.7c-308.3-772.6-956.8-1353.1-1717.4-1533.2c-368.3-84.1-996.8-76-1365.1,16c-300.2,76-828.6,316.2-964.7,436.3c-80.1,72.1-52.1,96.1-444.3-372.3C220.1-4202.2,100-4438.4,100-4738.6c0-540.4,584.5-1281,1497.2-1889.5c464.4-308.2,1565.2-852.7,1729.4-852.7c24,0,72.1,60,108.1,132.1c88.1,180.1,428.3,548.4,628.5,668.5c88.1,56.1,160.1,108.1,160.1,120.1S4095.1-6460,3939-6359.9c-152.1,100.1-404.3,312.2-560.4,472.4c-224.2,236.2-276.2,316.3-264.2,400.3c24,212.2,152.1,156.1,536.4-224.2c368.3-368.3,676.5-576.5,1068.8-724.6c184.1-68.1,384.3-92.1,988.8-124.1c848.7-48,1124.9-104.1,1841.4-376.3c636.5-244.2,708.6-252.2,968.8-136.1c424.3,196.2,940.7,744.6,1212.9,1285c336.3,668.5,192.2,1024.8-640.5,1601.2c-196.1,136.1-396.3,308.3-444.3,376.3c-48,68.1-140.1,340.3-212.1,600.5c-380.3,1413.1-504.4,1645.3-988.8,1849.4l-200.2,88.1l-72.1,368.3C6733.2,1430.2,5180,2723.2,3166.4,2443z M6737.2-2997.3c288.2-144.1,536.4-400.3,724.6-752.6c72.1-132.1,128.1-252.2,128.1-268.2c0-16-80.1,44.1-176.1,132.1c-188.2,176.2-196.1,176.2-660.5,248.2c-516.4,76.1-804.6,252.2-984.8,600.5c-68,132.1-60,140.1,160.1,176.2C6176.8-2825.2,6489-2877.2,6737.2-2997.3z"/></g></g>
</svg>