<?xml version="1.0" encoding="utf-8"?>
<!-- Svg Vector Icons : http://www.onlinewebfonts.com/icon -->
<!DOCTYPE svg PUBLIC "-//W3C//DTD SVG 1.1//EN" "http://www.w3.org/Graphics/SVG/1.1/DTD/svg11.dtd">
<svg version="1.1" xmlns="http://www.w3.org/2000/svg" xmlns:xlink="http://www.w3.org/1999/xlink" x="0px" y="0px" viewBox="0 0 1000 1000" enable-background="new 0 0 1000 1000" xml:space="preserve">
<metadata> Svg Vector Icons : http://www.onlinewebfonts.com/icon </metadata>
<g><g transform="translate(0.000000,249.000000) scale(0.100000,-0.100000)"><path d="M2671.7,2356.7c-1143.5-122.2-1636.3-895.1-1313-2077.9l86.7-323.3l-185.3-240.5c-236.6-303.6-437.7-690-473.2-902.9c-19.7-126.2-7.9-201.1,63.1-347c102.5-212.9,709.7-835.9,1242-1269.6l354.9-287.8l-78.9-236.6c-67-205-71-268.1-35.5-441.6c23.6-110.4,55.2-228.7,71-264.2c15.8-47.3-27.6-74.9-216.9-130.1c-563.8-153.7-993.6-477.1-1194.7-891.1c-110.4-228.7-201.1-729.5-161.7-891.1c35.5-138,141.9-185.3,244.4-110.4c71,47.3,86.8,98.6,86.8,268.1c0,272.1,90.7,563.9,232.6,761c205,279.9,634.8,524.4,1033.1,583.6c165.6,23.6,185.3,19.7,252.3-82.8c67-106.4,67-110.4,0-153.8c-390.3-224.8-729.4-642.7-855.6-1056.7c-177.4-591.4,19.7-1529.9,299.7-1423.4c98.6,39.4,110.4,165.6,39.4,382.5c-47.3,138-71,323.3-74.9,559.9c0,311.5,15.8,382.5,110.4,571.7c130.1,256.3,331.2,469.2,587.5,634.8l185.3,118.3l118.3-130.1l114.3-130.1l-114.3-130.1c-224.7-252.4-291.8-433.7-291.8-776.8c0-272.1,15.8-350.9,126.2-579.6c82.8-173.5,216.9-358.8,378.5-528.4c268.1-276,347-299.6,449.5-145.8c55.2,82.8,43.4,98.6-177.4,339.1c-378.5,406.1-512.6,741.3-437.7,1096.1c35.5,169.5,236.6,469.2,311.5,469.2c19.7,0,138-90.7,264.2-201.1c362.7-319.4,1206.5-942.3,1277.5-942.3c94.6,0,820.1,544.1,1470.7,1100.1c67,59.1,78.8,55.2,201.1-86.7c161.7-189.3,224.8-445.6,173.5-713.7c-43.4-244.5-149.8-417.9-441.6-725.5c-220.8-232.6-228.7-252.4-173.5-335.1c94.6-145.9,173.5-122.3,421.9,114.3c165.6,157.7,283.9,319.4,386.4,524.4c130.1,268.1,145.9,327.3,145.9,611.2c0,350.9-82.8,563.9-299.7,796.5l-114.3,118.3l130.1,126.2l130.1,126.2l193.2-134.1c256.3-169.5,477.1-417.9,583.6-646.6c110.4-244.5,118.3-800.4,11.8-1100.1c-71-216.9-59.1-343,39.4-382.5c181.4-71,323.3,240.5,358.8,780.7c47.3,674.3-232.7,1253.9-780.7,1604.8c-106.4,71-193.2,138-193.2,149.8c3.9,11.9,39.4,67,82.8,118.3c71,90.7,86.7,90.7,291.8,51.3c713.7-145.9,1151.4-603.3,1194.7-1253.9c15.8-236.6,35.5-303.6,98.6-350.9c98.6-71,212.9-15.8,248.4,118.3c35.5,141.9-55.2,646.6-161.6,875.4c-185.3,406.1-638.8,749.2-1194.7,902.9l-236.6,67l55.2,157.7c71,205,71,414-7.9,642.7c-31.5,98.6-47.3,197.2-27.6,209c15.7,15.8,201.1,169.6,406.1,343c461.3,382.5,966,883.2,1123.8,1115.9c216.9,319.4,134,662.4-311.5,1281.5L8570.4-36.7l86.8,319.4c106.5,394.3,114.4,906.9,19.7,1167.1c-145.9,394.3-390.3,634.8-800.4,788.6c-236.6,86.8-1025.2,185.3-1076.4,130.1c-15.8-15.8,90.7-287.8,236.6-603.3c291.8-619.1,354.9-820.1,268.1-871.4c-86.7-55.2-315.4-39.4-642.7,43.4c-169.5,43.4-331.2,78.9-362.8,78.9c-39.4,0-51.3-71-51.3-280c0-394.3,63.1-575.7,279.9-792.5c149.8-149.8,240.5-201.1,469.2-272.1c248.4-74.9,347-82.8,745.2-63.1l457.4,19.7L8326-537.5c205-268.1,406.1-623,406.1-721.6c0-55.2-98.6-193.2-268.1-370.6C8199.8-1913.6,7375.7-2643,7281.1-2678.5c-27.6-11.8-149.9,78.9-276,197.2c-122.2,122.2-272.1,256.3-331.2,299.7c-98.6,78.9-102.5,86.8-43.4,205c134,264.2-43.4,634.8-327.3,690c-169.6,31.5-390.4-43.4-477.1-165.6l-70.9-98.6l-354.9,201.1c-197.1,106.5-378.5,197.1-402.2,197.1c-27.6,0-212.9-90.7-410.1-201.1c-354.9-197.1-358.8-197.1-418-118.3c-193.2,276-619,252.3-800.4-47.3c-94.6-149.8-98.6-260.2-23.7-437.7l55.2-130.1L3070-2390.7l-335.2-307.6l-283.9,232.7c-153.8,126.2-485,425.8-729.4,662.4c-331.2,327.3-441.6,457.4-441.6,532.3c0,110.4,189.3,453.4,394.3,721.6l138,177.4l457.4-19.7c398.2-19.7,496.8-11.8,745.2,63.1c228.7,71,319.4,122.2,469.2,272.1c216.9,216.9,280,398.2,280,792.5c0,209-11.8,280-51.3,280c-31.6,0-193.2-35.5-362.8-78.9c-331.2-82.8-556-98.6-646.6-43.4c-86.8,55.2-31.6,236.6,252.3,843.8c142,299.7,256.3,567.8,256.3,599.3C3211.9,2404,3137,2404,2671.7,2356.7z M4268.6-2997.9c11.8-67-43.4-149.9-185.3-303.6c-106.5-114.4-209-260.3-220.8-319.4c-43.4-197.1-55.2-212.9-149.8-212.9c-283.9,0-205,366.7,161.6,757.1c138,149.8,205,189.2,280,181.4C4225.3-2903.3,4260.8-2934.8,4268.6-2997.9z"/></g></g>
</svg>