<?xml version="1.0" encoding="utf-8"?>
<!-- Svg Vector Icons : http://www.onlinewebfonts.com/icon -->
<!DOCTYPE svg PUBLIC "-//W3C//DTD SVG 1.1//EN" "http://www.w3.org/Graphics/SVG/1.1/DTD/svg11.dtd">
<svg version="1.1" xmlns="http://www.w3.org/2000/svg" xmlns:xlink="http://www.w3.org/1999/xlink" x="0px" y="0px" viewBox="0 0 1000 1000" enable-background="new 0 0 1000 1000" xml:space="preserve">
<metadata> Svg Vector Icons : http://www.onlinewebfonts.com/icon </metadata>
<g><g transform="translate(0.000000,246.000000) scale(0.100000,-0.100000)"><path d="M1988.8,2197c-646.9-50.7-1757.6-304-1886.2-432.6c-23.4-19.5,109.1-35.1,350.7-35.1c1403,0,2759.2-498.8,3339.8-1223.7c319.6-405.3,487.1-943.1,436.5-1406.9l-23.4-233.8l-350.7-7.8c-413.1-7.8-674.2-77.9-1063.9-280.6c-432.6-229.9-565.1-233.8-1656.3-58.5l-171.5,27.3l113-202.6c300.1-537.8,993.8-939.2,1886.2-1091.2c140.3-27.3,300.1-54.5,354.6-66.3l105.2-19.5l-385.8-639.2c-744.4-1231.5-1137.9-2120-1141.9-2579.9c-3.9-202.7,11.7-253.3,89.6-339.1c113-120.8,401.4-233.8,748.3-296.2c857.4-155.9,3098.2-93.5,3468.4,101.3c144.2,74,183.1,214.3,268.9,986c39,374.1,93.5,697.6,116.9,721c109.1,109.2,759.9-19.5,1208.1-241.6c397.5-194.9,448.2-288.4,444.3-806.7c0-448.2-54.6-611.8-339.1-1087.3C7799.5-7179.5,7729.3-7312,7741-7312c11.7,0,183.1,81.9,378,183.2c413.1,210.4,744.4,514.4,900.3,818.4c116.9,233.8,241.6,658.6,276.7,966.4c15.6,116.9,58.5,253.3,97.4,304c152,194.9,506.6,1032.7,506.6,1200.3c0,183.2-155.9,381.9-857.4,1079.5c-522.2,522.2-787.2,822.3-943.1,1060c-280.6,428.7-576.8,697.6-1024.9,927.5c-140.3,70.2-159.8,101.3-202.7,284.5c-74,315.7-405.3,954.8-650.8,1251C5515.7,1612.4,4486.9,2080,3064.5,2197c-276.7,19.5-549.5,35.1-604.1,35.1C2405.8,2228.1,2191.5,2212.5,1988.8,2197z M6755-1988.5c70.2-27.3,183.2-109.1,253.3-183.2c124.7-128.6,327.4-502.7,378-697.6c23.4-89.6,15.6-89.6-85.7,31.2c-89.6,105.2-159.8,136.4-374.1,183.1c-413.1,85.8-557.3,198.8-689.8,545.6c-31.2,85.7-27.3,105.2,50.6,136.4C6416-1922.3,6610.8-1926.2,6755-1988.5z M3859.5-4330.7c42.9-50.6,23.4-120.8-105.2-401.4c-148.1-319.6-249.4-596.3-300.1-830.1c-23.4-113-105.2-163.7-198.8-128.6c-85.7,35-105.2,148.1-54.6,354.6c50.7,202.6,311.8,830,405.3,974.3C3676.3-4260.6,3789.3-4245,3859.5-4330.7z"/></g></g>
</svg>