<?xml version="1.0" encoding="utf-8"?>
<!-- Svg Vector Icons : http://www.onlinewebfonts.com/icon -->
<!DOCTYPE svg PUBLIC "-//W3C//DTD SVG 1.1//EN" "http://www.w3.org/Graphics/SVG/1.1/DTD/svg11.dtd">
<svg version="1.1" xmlns="http://www.w3.org/2000/svg" xmlns:xlink="http://www.w3.org/1999/xlink" x="0px" y="0px" viewBox="0 0 1000 1000" enable-background="new 0 0 1000 1000" xml:space="preserve">
<metadata> Svg Vector Icons : http://www.onlinewebfonts.com/icon </metadata>
<g><g transform="translate(0.000000,246.000000) scale(0.100000,-0.100000)"><path d="M3837.5,2320.8c-575.6-75.9-1311-351.7-1782.7-675.5C1347.3,1157.7,763.7,350.3,479.9-545c-195.8-599.6-251.8-1051.3-227.8-1806.7c20-695.5,83.9-1027.3,283.8-1518.9c311.8-783.4,983.3-1438.9,1974.6-1934.6c155.9-79.9,287.8-139.9,287.8-127.9c0,8-83.9,135.9-187.9,287.8c-507.6,755.5-795.4,1694.8-839.4,2754c-52,1259.1,359.7,2690,667.5,2322.3c40-52,32-107.9-56-311.8c-211.9-495.6-267.8-803.4-291.8-1534.9c-16-515.6-8-779.4,44-1083.2c123.9-787.4,451.7-1602.8,863.4-2154.4c239.8-319.8,251.8-331.7,779.4-695.5c455.7-315.8,595.6-491.6,663.5-851.4L4489-7440l87.9,175.8c271.8,527.6,443.7,1247.1,407.7,1682.8c-36,399.7-159.9,627.5-579.6,1059.2c-895.4,911.3-1207.1,1774.7-967.3,2706c191.9,759.4,819.4,1534.9,1598.8,1970.6c107.9,60,199.8,131.9,199.8,155.9c0,68-167.9,207.9-327.7,275.8c-203.8,83.9-415.7,75.9-623.5-24c-255.8-123.9-375.7-331.7-403.7-687.5c-24-275.8-28-287.8-131.9-299.8c-147.9-16-207.8,103.9-179.9,391.7c68,751.4,843.4,1195.1,1514.9,867.4c259.8-127.9,367.7-235.8,491.6-491.7l91.9-191.9L5352.3-21.4c-1319-703.5-1950.5-1914.6-1578.8-3025.8c143.9-423.7,383.7-783.4,863.4-1283c451.6-467.7,583.6-699.5,643.5-1127.2c63.9-447.7-75.9-1143.2-347.7-1758.7c-47.9-115.9-79.9-211.8-64-211.8c48,0,639.5,547.6,867.3,803.4c259.8,287.8,511.6,663.5,611.5,903.4c36,95.9,95.9,171.9,127.9,171.9c32,0,275.8-48,535.6-99.9c507.6-107.9,767.4-203.9,859.4-311.8c28-40,71.9-68,91.9-68c76,0,543.6,355.7,683.5,519.6c171.9,199.9,199.9,355.7,123.9,703.5c-28,147.9-52,271.8-44,271.8c4,4,95.9,48,199.9,103.9c331.8,167.9,431.7,319.8,639.5,943.3c103.9,307.8,187.9,603.6,187.9,651.5c0,227.9-383.7,767.5-1103.2,1542.9l-367.7,399.7l63.9,243.8c52,207.9,56,271.8,12,415.7c-64,219.8-331.8,483.6-731.5,735.4C7454.8,606.1,7314.9,718,7314.9,742c0,84-307.8,531.6-507.6,747.5C6179.8,2160.9,5044.6,2476.7,3837.5,2320.8z M7434.8-1424.4c0-76-231.8-967.3-259.8-999.3c-4-8-32,135.9-55.9,319.8c-92,643.5-52,579.6-375.7,611.5c-159.9,16-359.7,40-447.7,55.9l-159.9,24l579.6,263.8l579.6,267.8l68-227.8C7402.8-1232.5,7434.8-1372.4,7434.8-1424.4z"/></g></g>
</svg>