<?xml version="1.0" encoding="utf-8"?>
<!-- Svg Vector Icons : http://www.onlinewebfonts.com/icon -->
<!DOCTYPE svg PUBLIC "-//W3C//DTD SVG 1.1//EN" "http://www.w3.org/Graphics/SVG/1.1/DTD/svg11.dtd">
<svg version="1.1" xmlns="http://www.w3.org/2000/svg" xmlns:xlink="http://www.w3.org/1999/xlink" x="0px" y="0px" viewBox="0 0 1000 1000" enable-background="new 0 0 1000 1000" xml:space="preserve">
<metadata> Svg Vector Icons : http://www.onlinewebfonts.com/icon </metadata>
<g><g transform="translate(0.000000,235.000000) scale(0.100000,-0.100000)"><path d="M4661.6,1883c-311.1-208.7-405.6-582.8-216.6-862.4l94.5-141.7l-421.3-19.7c-508-23.6-799.4-118.1-1457.1-468.6C1412.7-275,1223.7-349.8,810.2-349.8c-106.3,0-267.8,27.6-358.4,59.1c-94.5,31.5-177.2,51.2-189,43.3c-7.9-11.8,63-94.5,157.5-189c204.8-208.7,389.9-267.8,807.3-267.8h315l-638-1642.2C361.2-3748.3,251-3992.5,180.1-4004.3c-94.5-15.8-102.4-70.9-39.4-370.2C298.2-5118.7,940.1-5595.3,1712-5540.1c693.1,51.2,1268,606.4,1327.1,1295.6c19.7,208.8,15.8,232.4-51.2,232.4s-181.2,267.8-720.6,1654c-354.4,913.6-638,1661.9-630.1,1669.7c7.8,3.9,133.9,43.3,279.6,78.8c141.8,39.4,476.5,173.3,740.3,303.2c551.3,267.8,862.4,370.2,1220.8,409.6l256,23.6l90.6-137.8c51.2-74.8,141.8-248.1,196.9-385.9l106.3-248.1v-2264.4c0-2437.6-7.9-2532.1-208.7-2945.6c-129.9-271.7-303.2-421.4-701-602.5c-307.2-141.8-527.7-330.8-527.7-452.9c0-86.6,137.8-204.8,303.2-248.1c303.2-86.6,1098.7-129.9,1921.7-110.3c1354.7,35.5,1701.2,157.5,1480.7,511.9c-82.7,133.9-106.3,149.6-484.4,315c-287.5,129.9-555.2,378.1-677.3,634c-193,413.5-200.9,515.9-200.9,2918.1v2244.7l90.6,220.5c47.3,122.1,141.8,299.3,208.8,389.9l122.1,165.4l220.5-23.6c362.3-43.3,626.2-130,1189.3-397.7c295.4-141.8,657.7-283.5,807.3-322.9c153.6-39.4,283.5-74.8,291.4-78.8c7.9-3.9-275.7-756.1-626.2-1665.8c-543.4-1394.1-657.7-1654-720.6-1654c-70.9,0-74.8-19.7-55.1-232.4c63-693.1,637.9-1248.3,1342.9-1295.6c811.2-51.2,1488.6,504.1,1583.1,1299.6c23.6,208.7,19.7,220.5-59.1,236.3c-78.8,11.8-173.3,224.5-716.7,1626.4c-342.6,886.1-626.2,1626.4-626.2,1642.2c0,15.8,126,31.5,279.6,31.5c385.9,0,574.9,63,775.8,267.8c94.5,94.5,165.4,177.2,157.5,189c-11.8,7.9-94.5-11.8-189-43.3c-90.6-31.5-252-59.1-358.3-59.1c-413.5,0-602.5,74.8-1850.9,740.3C6642.4,741,6350.9,835.5,5843,859.2l-421.4,19.7l94.5,141.7c267.8,389.9-51.2,953-535.6,953C4854.5,1973.6,4752.1,1946,4661.6,1883z M2082.2-2783.5c256-657.6,456.8-1201.1,445-1212.9c-7.9-7.9-441.1-11.8-960.9-7.9l-949,11.8l480.4,1228.7c259.9,677.3,488.3,1216.8,500.1,1201.1C1609.6-1578.5,1830.1-2125.9,2082.2-2783.5z M8934.3-2830.8l452.9-1161.7l-949.1-11.8c-523.7-4-956.9-4-964.8,7.9c-7.9,7.9,169.4,488.3,397.8,1071.1c590.7,1531.9,543.4,1421.6,582.8,1331.1C8469.6-1633.6,8686.2-2192.8,8934.3-2830.8z"/></g></g>
</svg>