<?xml version="1.0" encoding="utf-8"?>
<!-- Svg Vector Icons : http://www.onlinewebfonts.com/icon -->
<!DOCTYPE svg PUBLIC "-//W3C//DTD SVG 1.1//EN" "http://www.w3.org/Graphics/SVG/1.1/DTD/svg11.dtd">
<svg version="1.1" xmlns="http://www.w3.org/2000/svg" xmlns:xlink="http://www.w3.org/1999/xlink" x="0px" y="0px" viewBox="0 0 1000 1000" enable-background="new 0 0 1000 1000" xml:space="preserve">
<metadata> Svg Vector Icons : http://www.onlinewebfonts.com/icon </metadata>
<g><g transform="translate(0.000000,254.000000) scale(0.100000,-0.100000)"><path d="M3544.4,2373.2c-410.4-154.8-662-495.5-627.1-847.8c15.5-158.7,3.9-170.3-255.5-422C2158.5,619.5,1752.1-11.5,1496.5-719.9c-54.2-158.7-170.3-576.8-255.5-929.1c-139.4-569.1-178.1-677.5-363.9-987.2c-290.3-491.7-627.1-1188.5-723.9-1502c-96.8-329.1-65.8-452.9,127.8-452.9c135.5,0,263.2,116.1,774.2,692.9l255.5,282.6l120-62c65.8-34.8,255.5-147.1,422-255.5c433.6-274.9,588.4-247.8,542,96.8c-27.1,182-89,321.3-410.4,921.3c-255.5,472.3-263.3,569.1-65.8,859.4c243.9,352.3,770.4,720,1444,1006.5c511,216.8,514.9,216.8,329.1-19.4c-298.1-375.5-197.4-545.8,356.1-572.9c367.8-19.4,592.3,31,716.2,162.6c50.3,54.2,147.1,247.8,216.8,437.5c147.1,383.3,61.9,332.9,735.5,456.8c789.7,147.1,1800.1,665.9,1800.1,925.2c0,131.6-170.3,452.9-363.9,689.1c-325.2,398.7-793.6,700.7-1358.8,882.6c-209.1,65.8-398.7,92.9-813,104.5l-545.8,19.4l-81.3,147.1C4198.7,2446.8,3912.2,2516.4,3544.4,2373.2z M5019.4,1080.2V964.1L4663.2,937c-212.9-15.5-468.4-65.8-631-120c-309.7-108.4-716.2-387.1-898.1-611.7c-131.6-162.6-240-185.8-313.6-65.8c-92.9,143.2,371.6,607.8,847.8,843.9c352.3,174.2,607.8,228.4,1002.6,220.7l348.4-7.8V1080.2z"/><path d="M9397.7-534.1c-112.2-112.3-313.6-332.9-452.9-491.6l-255.5-282.6l-120,61.9c-65.8,34.8-255.5,147.1-422,255.5c-433.6,274.9-588.4,247.8-542-96.8c27.1-182,89-321.3,410.3-921.3c255.5-472.3,263.3-569.1,65.8-859.4c-243.9-352.3-770.4-720.1-1444-1006.5c-511-216.8-514.9-216.8-329.1,19.4c298.1,375.5,197.4,545.8-356.2,572.9c-584.5,31-747.1-73.6-932.9-600c-61.9-166.5-120-317.4-135.5-332.9c-15.5-19.4-166.5-50.4-332.9-69.7c-820.7-104.5-2067.2-692.9-2067.2-975.5c0-135.5,166.5-452.9,363.9-693c325.2-398.7,793.6-700.7,1358.8-882.6c209-65.8,398.7-92.9,816.8-104.5l545.8-19.4l69.7-131.6c135.5-251.6,387.1-332.9,727.8-232.3c445.2,131.6,739.4,480,716.2,851.7c-11.6,189.7-11.6,189.7,255.5,445.2c503.3,483.9,909.7,1114.9,1165.3,1823.4c54.2,158.7,170.3,576.8,255.5,929.1c139.4,572.9,178.1,677.5,363.9,991C9417-1788.4,9750-1099.3,9846.8-785.7c96.8,329.1,65.8,452.9-127.8,452.9C9622.2-332.8,9552.5-375.4,9397.7-534.1z M7167.9-4842.7c73.5-89,15.5-189.7-263.2-452.9c-313.6-294.2-634.9-472.3-1037.5-572.9c-336.8-85.2-789.7-100.7-859.4-31c-58.1,58.1-58.1,174.2,0,209c23.2,15.5,174.2,34.9,336.8,42.6c569.1,23.2,1033.6,228.4,1413,619.4C6997.5-4780.8,7082.7-4742.1,7167.9-4842.7z"/></g></g>
</svg>