<?xml version="1.0" encoding="utf-8"?>
<!-- Svg Vector Icons : http://www.onlinewebfonts.com/icon -->
<!DOCTYPE svg PUBLIC "-//W3C//DTD SVG 1.1//EN" "http://www.w3.org/Graphics/SVG/1.1/DTD/svg11.dtd">
<svg version="1.1" xmlns="http://www.w3.org/2000/svg" xmlns:xlink="http://www.w3.org/1999/xlink" x="0px" y="0px" viewBox="0 0 1000 1000" enable-background="new 0 0 1000 1000" xml:space="preserve">
<metadata> Svg Vector Icons : http://www.onlinewebfonts.com/icon </metadata>
<g><g transform="translate(0.000000,247.000000) scale(0.100000,-0.100000)"><path d="M8826.1,1961.1C8266,1753,7681.9,1537,7529.9,1481l-272-108l332-332L7926,704.9l-288-288c-180-176-304-276-340-256c-28,12-172,120-320,236C5957.7,1201,4501.5,1649,3349.4,1513c-680.1-80-1272.2-308.1-1684.2-644.1c-264-216-252-216-536.1-76c-252,124-268,124-332.1,60c-96-96-96-376.1,0-524.1c40-60,140-140,220-172.1c80-32,152-64,156-68c24-20,1368.2-4720.6,1356.2-4736.7c-12-8-240-60-508.1-108l-488.1-92L801-5579.9C393-5984,80.9-6320,100.9-6328.1c20-8,328.1,44,688.1,112c356,64,652.1,116,660.1,108c4-4-44-288-108-628.1c-64-340-112-640.1-108-664.1c8-24,340,272,740.1,664.1l732.1,704.1l88,480.1c48,260,96,492.1,112,508c16,20,1008.1-248,2204.3-592.1c2776.4-796.1,2544.4-720.1,2576.4-864.1c36-156,232-348.1,396-376.1c144-28,424.1,64,424.1,144c0,24-68,168-148,320l-148,276l124,128c288,308,560.1,868.1,680.1,1408.2c88,392,88,1220.2-4,1676.2c-172,888.1-600.1,1808.3-1152.1,2472.4c-84,104-152,204-152,224s124,160,280,312l276,276.1l328.1-312c176-172.1,336.1-296.1,356.1-280c16,20,232,584.1,480.1,1256.1c248,672.1,460.1,1244.2,468.1,1272.2c12,24,4,48-12,44C9862.2,2341.1,9386.2,2169.1,8826.1,1961.1z M3657.4,740.9c468.1-72,1104.2-332,1680.2-684.1c292-176,856.1-608.1,996.2-760.1l88-96L4625.5-2595.6C3441.4-3779.7,2821.3-4371.8,2809.3-4335.8c-12,32-308.1,1048.2-656.1,2260.3L1517.1,120.8l184,172c264,244,684.1,444,1024.1,488.1C3017.3,816.9,3233.3,808.9,3657.4,740.9z M7473.9-2011.5C8082-2923.6,8346-3671.7,8346-4495.8c0-596.1-132-952.1-508.1-1376.2c-72-80-148-144-172-144c-36,0-4040.5,1144.2-4356.6,1248.2l-136,40l1796.2,1800.2l1796.2,1796.3l212-232.1C7097.8-1491.4,7317.9-1783.5,7473.9-2011.5z"/></g></g>
</svg>