<?xml version="1.0" encoding="utf-8"?>
<!-- Svg Vector Icons : http://www.onlinewebfonts.com/icon -->
<!DOCTYPE svg PUBLIC "-//W3C//DTD SVG 1.1//EN" "http://www.w3.org/Graphics/SVG/1.1/DTD/svg11.dtd">
<svg version="1.1" xmlns="http://www.w3.org/2000/svg" xmlns:xlink="http://www.w3.org/1999/xlink" x="0px" y="0px" viewBox="0 0 1000 1000" enable-background="new 0 0 1000 1000" xml:space="preserve">
<metadata> Svg Vector Icons : http://www.onlinewebfonts.com/icon </metadata>
<g><g transform="translate(0.000000,252.000000) scale(0.100000,-0.100000)"><path d="M3371,2380.8c-795.8-105.9-1344.7-517.5-1552.5-1172.2c-105.8-329.3-141.1-980.1-74.5-1372.1c145.1-858.6,960.5-1654.4,1885.7-1842.6l219.6-47.1l23.5-282.3c11.8-156.8,11.8-290.1,3.9-298c-7.8-7.8-145-23.5-301.8-35.3c-388.1-23.5-662.6,58.8-901.7,270.5c-192.1,164.6-317.6,188.2-392,70.6c-90.2-141.1,227.4-431.2,635.1-588c227.4-86.3,748.8-121.5,933.1-58.8c98,31.4,129.4-43.1,141.1-298c7.8-117.6-7.9-137.2-188.2-227.4c-258.8-129.4-807.6-141.1-1074.2-23.5c-199.9,94.1-297.9,54.9-297.9-117.6c0-102,23.5-121.6,235.2-207.8c188.2-74.5,301.9-94.1,568.5-94.1c309.7,0,454.7,35.3,827.2,188.2c51,19.6,82.3-23.5,145.1-211.7l82.3-239.1l-176.4-101.9c-231.3-133.3-470.4-203.8-776.2-223.5c-137.2-7.9-266.6-27.5-294-43.1c-58.8-35.3-54.9-192.1,3.9-250.9c117.6-117.6,862.5,15.6,1195.7,211.7c98,54.9,180.3,94.1,184.2,86.3c164.7-262.7,243.1-360.7,356.8-450.9c113.7-86.3,156.8-172.5,239.1-423.4c262.7-827.2,196-1411.3-180.3-1607.4c-62.7-31.3-168.6-58.8-231.3-58.8c-141.1,0-497.9,129.4-623.3,227.4c-86.3,66.7-90.2,82.3-47.1,231.3c62.7,199.9,0,348.9-192.1,462.6c-74.5,43.1-184.3,125.5-247,188.2c-105.9,98-117.6,125.4-101.9,321.5l11.8,219.5l-105.9-129.4c-309.7-380.3-431.2-901.7-270.5-1160.4c102-160.8,301.9-282.3,466.5-282.3c78.4,0,188.2-43.1,286.2-117.6c509.6-368.5,1144.8-364.6,1474.1,11.8c305.8,348.9,325.4,1089.9,51,1893.5l-78.4,227.4l94.1,98c51,54.8,125.5,156.8,164.7,219.5c39.2,66.7,74.5,125.5,78.4,129.4c3.9,7.8,86.3-31.4,184.3-86.3c333.2-196,1078.1-329.3,1195.7-211.7c58.8,58.8,62.7,215.6,3.9,250.9c-27.4,15.7-156.8,35.3-294,43.1c-305.8,19.6-544.9,90.2-776.2,223.5l-176.4,101.9l82.4,239.1c62.7,188.2,94.1,231.3,145,211.7c372.4-152.9,517.5-188.2,827.2-188.2c266.6,0,380.3,19.6,568.4,94.1c211.7,86.3,235.2,105.8,235.2,207.8c0,172.5-98,211.7-298,117.6c-266.6-117.6-815.4-105.9-1074.2,23.5c-180.4,90.2-196,109.8-188.2,227.4c11.7,254.8,47,329.3,141.1,298c188.2-58.8,709.6-27.4,933,58.8c407.7,156.8,725.3,446.9,635.1,588c-74.5,117.6-199.9,94.1-392-70.6c-239.1-211.7-513.6-294.1-901.7-270.5c-156.8,11.8-294,27.5-301.9,35.3c-7.9,7.9-7.9,141.2,3.9,294l19.6,278.4l286.2,66.6c948.7,223.5,1674,940.9,1826.9,1807.3c70.6,415.6,27.5,1117.3-90.2,1434.9c-188.2,509.7-537.1,846.8-1038.9,1011.5c-270.5,90.2-682.2,160.7-952.6,160.7h-176.4l176.4-145.1c274.4-223.5,509.6-482.2,631.2-697.8c62.7-105.9,113.7-207.8,113.7-223.5c0-31.4-160.8,15.7-407.7,121.5c-105.9,47.1-199.9,74.5-211.7,66.7c-35.3-35.3,196-627.3,305.8-788c223.5-325.4,588.1-592,987.9-721.3C7671.6,5,7750-45.9,7761.8-85.1c54.9-176.4-227.4-686.1-537.1-964.4c-235.2-211.7-690-443-933-474.4l-176.4-23.5l-66.7,278.3c-78.4,341.1-223.5,662.5-388.1,870.3L5535-241.9l82.3,86.2c152.9,168.6,219.5,352.8,219.5,615.5c0,258.7-94.1,513.6-223.4,619.4c-47.1,43.1-54.9,23.5-39.2-117.6c35.3-345-247-670.4-576.3-670.4c-329.3,0-611.6,325.4-576.3,670.4c15.7,141.1,7.8,160.7-39.2,117.6c-129.4-105.8-223.5-360.7-223.5-619.4c0-262.7,66.7-446.9,219.6-615.5l82.3-86.2l-125.5-156.8c-164.7-207.8-309.7-529.3-388.1-870.3l-66.7-278.3l-168.6,23.5c-588.1,78.4-1356.5,784.1-1478,1344.7c-23.5,113.7-15.7,133.3,86.3,172.5c631.2,262.7,933,497.9,1140.8,889.9c125.5,239.1,262.7,627.3,231.3,658.6c-7.9,7.8-102-19.6-207.8-66.7c-247-105.8-407.7-152.9-407.7-121.5c0,15.7,51,117.6,113.7,223.5c121.6,215.6,356.8,474.4,631.2,697.8l176.4,145.1l-196-3.9C3696.3,2412.2,3500.3,2396.5,3371,2380.8z"/></g></g>
</svg>