<?xml version="1.0" encoding="utf-8"?>
<!-- Svg Vector Icons : http://www.onlinewebfonts.com/icon -->
<!DOCTYPE svg PUBLIC "-//W3C//DTD SVG 1.1//EN" "http://www.w3.org/Graphics/SVG/1.1/DTD/svg11.dtd">
<svg version="1.1" xmlns="http://www.w3.org/2000/svg" xmlns:xlink="http://www.w3.org/1999/xlink" x="0px" y="0px" viewBox="0 0 1000 1000" enable-background="new 0 0 1000 1000" xml:space="preserve">
<metadata> Svg Vector Icons : http://www.onlinewebfonts.com/icon </metadata>
<g><g transform="translate(0.000000,250.000000) scale(0.100000,-0.100000)"><path d="M5713.4,2379.1c-1095.4-110.3-1938.7-358.6-2533.7-744.8c-512.3-331-839.3-756.5-993-1292.5c-82.8-283.7-63.1-973.3,31.5-1233.4l63-169.4l-106.4-23.7c-602.9-137.9-993-256.1-1300.4-398c-153.7-74.9-224.6-134-283.7-252.2c-370.4-721.1-220.7-2238.2,358.6-3676.4c445.3-1099.4,1060-1820.5,1674.7-1958.4c244.3-55.1,157.6-78.8,1308.2,327.1l602.9,212.8l-240.4,67c-563.5,157.6-1028.5,500.4-1253.1,929.9c-197,366.5-307.4,906.3-201,969.4c19.7,15.7,82.8,15.7,130,3.9c74.9-19.7,98.5-63,137.9-267.9c106.4-555.6,433.5-985.1,926-1217.6c405.9-189.1,709.3-240.4,1568.3-252.2c929.9-15.8,1028.5-27.6,1430.4-208.8c264.1-118.2,366.5-141.9,618.7-149.8c267.9-3.9,327-19.7,488.6-126.1c433.4-287.7,890.6-248.3,1209.7,106.4c216.7,244.3,279.7,457.1,256.1,843.3c-19.7,311.3-137.9,591.1-346.8,827.5c-63,74.9-118.2,169.4-118.2,212.8c0,114.2-82.7,334.9-165.4,441.3c-39.4,51.3-177.3,177.3-307.4,275.8c-334.9,260.1-480.7,500.5-1063.9,1745.7c-177.3,382.2-370.4,736.8-425.5,792c-141.9,134-681.7,441.3-1430.4,815.7c-721.1,362.5-863,488.6-863,772.3c0,465,535.9,1048.2,1418.6,1544.7c405.9,228.5,1119.1,488.6,1789,658.1c366.5,90.6,650.2,177.3,630.5,189.1c-55.2,31.5-626.5,145.8-1060,204.9C7305.4,2398.8,6095.7,2418.5,5713.4,2379.1z M6099.6-2901.1l327-23.6l299.5-595c161.5-327.1,271.9-575.3,244.3-551.7c-31.5,23.7-248.2,204.9-488.7,398c-390.1,323.1-484.6,378.3-965.4,579.2l-531.9,216.7l394,4C5595.2-2873.5,5918.4-2885.3,6099.6-2901.1z M9185-5777.7c130-260,133.9-677.8,7.9-878.7c-110.4-181.3-279.8-275.8-484.7-275.8c-149.7,0-394,90.6-394,145.8c0,11.8,90.7,118.2,197,232.5c181.3,193.1,512.3,780.2,512.3,910.3C9023.4-5541.2,9090.4-5596.4,9185-5777.7z"/></g></g>
</svg>