<?xml version="1.0" encoding="utf-8"?>
<!-- Svg Vector Icons : http://www.onlinewebfonts.com/icon -->
<!DOCTYPE svg PUBLIC "-//W3C//DTD SVG 1.1//EN" "http://www.w3.org/Graphics/SVG/1.1/DTD/svg11.dtd">
<svg version="1.1" xmlns="http://www.w3.org/2000/svg" xmlns:xlink="http://www.w3.org/1999/xlink" x="0px" y="0px" viewBox="0 0 1000 1000" enable-background="new 0 0 1000 1000" xml:space="preserve">
<metadata> Svg Vector Icons : http://www.onlinewebfonts.com/icon </metadata>
<g><g transform="translate(0.000000,249.000000) scale(0.100000,-0.100000)"><path d="M4831.6,2344.5c-728.3-138.5-1405.1-486.8-1947.3-1005.3c-502.7-478.9-795.6-977.6-981.6-1666.3c-83.1-296.8-91-427.5-91-1088.4c0-858.9,27.7-1056.8,336.4-2315.4c221.7-886.6,269.1-1242.8,197.9-1381.4c-67.3-118.8-277.1-241.4-419.6-241.4c-162.3,0-368.1,134.6-399.8,257.3c-27.7,106.9-4,407.7,43.5,562.1c27.7,79.2,19.8,87-87.1,55.4c-348.3-99-621.4-336.4-775.8-672.9c-67.3-146.4-83.1-261.2-87.1-577.9c0-348.3,11.9-423.5,102.9-617.5c281-593.7,827.2-906.4,1595.1-906.4c558.1,0,957.9,126.7,1325.9,427.5c209.8,170.2,447.3,526.4,518.5,775.8c27.7,99,63.3,174.2,79.2,162.3c15.8-11.9,51.4-162.3,79.2-340.4l51.4-324.5l320.6-146.4c783.7-360.2,1729.6-668.9,2161.1-700.6c427.5-31.7,431.4-23.7,320.6,613.5c-51.4,277.1-126.6,700.6-166.2,938.1c-43.6,241.4-71.3,506.6-67.3,593.7c19.8,245.4,87.1,265.2,882.6,245.4c395.8-11.9,704.5-4,744.1,15.8c114.8,67.3,186,257.3,186,498.7c0,201.9,15.8,249.4,122.7,380c110.8,134.6,118.7,162.3,75.2,245.4c-43.5,79.2-35.6,106.9,55.4,229.6c99,130.6,102.9,146.5,55.4,320.6l-47.5,182.1l186,174.1c269.1,245.4,257.3,289-197.9,787.7c-253.3,277.1-277.1,383.9-190,835.2c71.2,387.9,51.4,589.7-118.8,1151.8c-142.5,471-126.7,459.1-570,391.8c-439.3-63.3-949.9-233.5-1262.6-415.6c-122.7-75.2-376-285-562-471c-376-376-566-700.6-720.4-1234.9c-83.1-292.9-83.1-312.7-19.8-443.3c83.1-178.1,316.6-332.5,550.2-364.2c340.4-47.5,419.5,158.3,285,740.2c-35.6,154.4-55.4,288.9-43.6,296.9c35.6,35.6,542.2-577.9,649.1-787.6c142.5-281,154.3-716.4,19.8-965.8c-296.8-558.1-981.6-811.4-1539.7-570c-114.8,51.5-229.6,114.8-253.3,146.5c-83.1,99-106.9,59.4-130.6-209.8c-47.5-490.8,47.5-621.4,368.1-518.5l201.9,63.3v-194c0-241.4-67.3-383.9-277.1-558.1c-486.8-419.5-1262.6-241.4-1488.2,348.3c-83.1,217.7-63.3,308.7,71.3,324.6c91,11.9,114.8-15.8,217.7-213.8c186-380,534.3-494.8,910.3-300.8c225.6,118.8,237.5,154.4,55.4,205.8c-102.9,27.7-190,87.1-249.3,170.2c-134.6,186-142.5,700.6-19.8,1250.7l91,415.6l186-261.2c364.1-514.6,886.6-609.6,1357.6-249.4c237.5,182.1,360.2,601.6,257.3,870.8c-27.7,71.2-35.6,67.3-98.9-47.5c-95-190-261.2-261.2-577.9-241.4c-328.5,15.8-621.4,186-779.7,455.2c-87.1,154.4-99,205.8-83.1,419.5c63.3,748.1,617.4,1618.8,1333.8,2089.8c439.3,288.9,918.2,455.2,1638.6,569.9c83.1,11.9,146.5,47.5,146.5,75.2c0,158.3-312.7,657-577.9,922.2c-510.6,510.6-1341.8,835.1-2212.6,866.8C5290.8,2395.9,5025.6,2380.1,4831.6,2344.5z M5658.8,1446c75.2-75.2,55.4-190-39.6-225.6c-51.5-19.8-249.3-83.1-447.2-142.5C4150.9,773.1,3497.8,199.2,3204.9-643.8c-79.2-221.6-91-332.5-87.1-819.3c4-530.4,0-566-75.2-589.7c-126.7-39.6-190,71.3-229.6,399.8c-59.4,534.3,35.6,1044.9,285,1527.8c368.1,708.5,1060.7,1223,2054.2,1523.8C5492.6,1501.4,5591.6,1513.3,5658.8,1446z"/></g></g>
</svg>